<svg width="328" height="90" viewBox="0 0 328 90" fill="none" xmlns="http://www.w3.org/2000/svg">
<path d="M30.6625 64.723C30.6625 65.2637 30.7095 65.7809 30.8035 66.2746C30.9211 66.7448 31.1326 67.1562 31.4383 67.5089C31.7674 67.8615 32.2023 68.1436 32.743 68.3552C33.3072 68.5668 34.036 68.6726 34.9294 68.6726C36.2224 68.6726 37.4096 68.3082 38.491 67.5794C39.5725 66.8271 40.5011 65.875 41.2769 64.723C42.0527 63.5476 42.6522 62.2428 43.0753 60.8087C43.4985 59.3512 43.7101 57.9053 43.7101 56.4713C43.7101 54.3319 43.4162 52.4512 42.8285 50.8291C42.2643 49.1834 41.465 47.7964 40.4305 46.6679C39.3961 45.5395 38.1737 44.6696 36.7631 44.0584C35.3525 43.4237 33.8244 43.0593 32.1788 42.9652L32.8841 41.1668C33.9185 41.2138 34.9059 41.0727 35.8462 40.7436C36.7866 40.4145 37.6094 39.8385 38.3147 39.0157C39.0435 38.1928 39.6195 37.0879 40.0426 35.7009C40.4658 34.2903 40.6774 32.5271 40.6774 30.4113C40.6774 28.9772 40.5011 27.6842 40.1484 26.5323C39.7958 25.3803 39.3256 24.4164 38.7379 23.6406C38.1737 22.8413 37.5036 22.2301 36.7278 21.8069C35.9755 21.3837 35.1997 21.1722 34.4004 21.1722C33.9067 21.1722 33.4248 21.2309 32.9546 21.3485C32.5079 21.466 32.1083 21.6658 31.7556 21.948C31.4265 22.2301 31.1561 22.6062 30.9446 23.0764C30.7565 23.5231 30.6625 24.0873 30.6625 24.7691V64.723ZM31.3677 18.2805C38.1854 18.2805 43.1929 19.3502 46.3901 21.4895C49.6109 23.6054 51.2213 26.6968 51.2213 30.7639C51.2213 31.7748 51.1037 32.7034 50.8687 33.5498C50.6571 34.3961 50.375 35.1719 50.0223 35.8772C49.6697 36.559 49.27 37.1702 48.8233 37.7109C48.3767 38.2516 47.9182 38.7218 47.4481 39.1215C46.3431 40.0853 45.0971 40.8376 43.7101 41.3783V41.9073C45.8964 42.1659 47.8595 42.8242 49.5992 43.8821C50.3279 44.3288 51.045 44.893 51.7502 45.5747C52.4555 46.233 53.0785 47.0441 53.6192 48.008C54.1835 48.9483 54.6301 50.0533 54.9593 51.3228C55.3119 52.5688 55.4882 54.0028 55.4882 55.625C55.4882 58.0934 55.0415 60.315 54.1482 62.2898C53.2548 64.2646 51.9266 65.9455 50.1634 67.3326C48.4002 68.6961 46.2021 69.7423 43.569 70.471C40.936 71.1998 37.8798 71.5642 34.4004 71.5642C31.1797 71.5642 28.5584 71.3644 26.5366 70.9647C24.5148 70.5651 22.9397 69.9891 21.8112 69.2368C20.6828 68.461 19.907 67.5324 19.4838 66.451C19.0842 65.3695 18.8843 64.1471 18.8843 62.7835V24.2048C18.8843 22.9118 17.991 22.2653 16.2043 22.2653C14.9113 22.2653 13.5947 22.4652 12.2547 22.8648C10.9382 23.241 9.73922 23.7699 8.6578 24.4517C7.59988 25.11 6.73004 25.9093 6.04827 26.8496C5.3665 27.7665 5.02562 28.7656 5.02562 29.8471C5.02562 30.5994 5.11966 31.1988 5.30773 31.6455C5.51932 32.0922 5.75441 32.4331 6.01301 32.6682C6.27161 32.8798 6.53021 33.0208 6.78881 33.0913C7.07093 33.1384 7.27075 33.1619 7.3883 33.1619C7.97603 33.1619 8.45797 33.0678 8.83412 32.8798C9.21027 32.6682 9.55115 32.4566 9.85677 32.245C10.1624 32.0099 10.4445 31.7983 10.7031 31.6103C10.9852 31.3987 11.3026 31.2929 11.6552 31.2929C11.9373 31.2929 12.2312 31.3634 12.5368 31.5045C12.866 31.622 13.1598 31.8218 13.4184 32.104C13.7005 32.3861 13.9356 32.7622 14.1237 33.2324C14.3118 33.6791 14.4058 34.2315 14.4058 34.8898C14.4058 35.8302 14.2177 36.6412 13.8416 37.323C13.4889 38.0048 13.0188 38.5807 12.431 39.0509C11.8668 39.4976 11.2086 39.8385 10.4563 40.0736C9.72747 40.2852 8.99868 40.391 8.2699 40.391C7.14145 40.391 6.1188 40.2029 5.20194 39.8267C4.30859 39.4271 3.54454 38.8864 2.90979 38.2046C2.27504 37.5228 1.7931 36.7235 1.46397 35.8067C1.13484 34.8898 0.970276 33.9142 0.970276 32.8798C0.970276 30.9285 1.33467 29.2123 2.06346 27.7312C2.79224 26.2266 3.81489 24.9336 5.13141 23.8522C6.47144 22.7708 8.07007 21.8774 9.9273 21.1722C11.7845 20.4434 13.8416 19.8674 16.0985 19.4442C18.3554 19.0211 20.7651 18.7272 23.3276 18.5626C25.9136 18.3746 28.5936 18.2805 31.3677 18.2805ZM73.3317 67.8263C73.3317 68.1319 73.273 68.508 73.1554 68.9547C73.0614 69.3779 72.8145 69.7893 72.4149 70.1889C72.0387 70.5651 71.4863 70.8825 70.7575 71.1411C70.0287 71.4232 69.0413 71.5642 67.7953 71.5642C66.5493 71.5642 65.5737 71.4114 64.8684 71.1058C64.1631 70.8237 63.6342 70.4828 63.2815 70.0831C62.9289 69.6835 62.7056 69.2721 62.6115 68.8489C62.541 68.4257 62.5057 68.0849 62.5057 67.8263V40.6025C62.5057 39.9208 62.3412 39.333 62.012 38.8394C61.7064 38.3221 61.1775 38.0635 60.4252 38.0635C60.0255 38.0635 59.6846 38.1341 59.4025 38.2751C59.1204 38.4162 58.8148 38.616 58.4856 38.8746L57.7451 37.993C58.2858 37.5463 58.8853 37.1114 59.5436 36.6883C60.2253 36.2416 60.9541 35.8537 61.7299 35.5245C62.5057 35.1954 63.3403 34.9251 64.2337 34.7135C65.127 34.5019 66.0674 34.3961 67.0548 34.3961C68.5829 34.3961 69.7701 34.6077 70.6164 35.0309C71.4628 35.4305 72.0857 35.936 72.4854 36.5472C72.8851 37.1349 73.1202 37.7697 73.1907 38.4514C73.2847 39.1332 73.3317 39.7327 73.3317 40.2499V67.8263ZM61.4125 26.3559C61.4125 25.6977 61.5536 25.0747 61.8357 24.487C62.1413 23.8757 62.5527 23.3468 63.07 22.9001C63.6107 22.4534 64.2219 22.1008 64.9037 21.8422C65.609 21.5836 66.373 21.4543 67.1958 21.4543C67.9951 21.4543 68.7357 21.5836 69.4174 21.8422C70.1227 22.1008 70.734 22.4534 71.2512 22.9001C71.7684 23.3468 72.168 23.8757 72.4501 24.487C72.7558 25.0747 72.9086 25.6977 72.9086 26.3559C72.9086 27.0377 72.7558 27.6725 72.4501 28.2602C72.168 28.8479 71.7684 29.3651 71.2512 29.8118C70.734 30.235 70.1227 30.5759 69.4174 30.8345C68.7357 31.0931 67.9951 31.2224 67.1958 31.2224C66.373 31.2224 65.609 31.0931 64.9037 30.8345C64.2219 30.5759 63.6107 30.235 63.07 29.8118C62.5527 29.3651 62.1413 28.8479 61.8357 28.2602C61.5536 27.6725 61.4125 27.0377 61.4125 26.3559ZM102.989 53.4386C102.989 50.4764 102.848 48.1137 102.565 46.3506C102.307 44.5639 101.954 43.2121 101.508 42.2952C101.061 41.3548 100.567 40.7436 100.026 40.4615C99.4858 40.1559 98.9333 40.0031 98.3691 40.0031C97.6873 40.0031 97.0761 40.1911 96.5354 40.5673C96.0182 40.9199 95.5597 41.3313 95.1601 41.8015C94.7839 42.2717 94.4548 42.7419 94.1727 43.2121C93.9141 43.6823 93.6907 44.0349 93.5027 44.27V67.8263C93.5027 68.1319 93.4557 68.508 93.3616 68.9547C93.2676 69.3779 93.0325 69.7893 92.6563 70.1889C92.3037 70.5651 91.763 70.8825 91.0342 71.1411C90.3289 71.4232 89.3533 71.5642 88.1073 71.5642C86.8613 71.5642 85.8739 71.4114 85.1451 71.1058C84.4399 70.8237 83.8991 70.4828 83.523 70.0831C83.1468 69.6835 82.9118 69.2721 82.8177 68.8489C82.7237 68.4257 82.6767 68.0849 82.6767 67.8263V40.6025C82.6767 39.9208 82.5121 39.333 82.183 38.8394C81.8773 38.3221 81.3484 38.0635 80.5961 38.0635C80.1964 38.0635 79.8556 38.1341 79.5734 38.2751C79.2913 38.4162 78.9857 38.616 78.6566 38.8746L77.916 37.993C78.4568 37.5463 79.0562 37.1114 79.7145 36.6883C80.3963 36.2416 81.1251 35.8537 81.9009 35.5245C82.6767 35.1954 83.5112 34.9251 84.4046 34.7135C85.2979 34.5019 86.2383 34.3961 87.2257 34.3961C88.7538 34.3961 89.941 34.6547 90.7874 35.1719C91.6337 35.6656 92.2567 36.2651 92.6563 36.9704C93.056 37.6756 93.2911 38.4162 93.3616 39.192C93.4557 39.9443 93.5027 40.579 93.5027 41.0962C94.3725 39.8502 95.3599 38.7336 96.4648 37.7462C96.9115 37.323 97.4052 36.9116 97.9459 36.5119C98.5101 36.1123 99.0979 35.7596 99.7091 35.454C100.344 35.1249 101.002 34.8663 101.684 34.6782C102.389 34.4901 103.106 34.3961 103.835 34.3961C105.434 34.3961 106.844 34.7017 108.067 35.313C109.313 35.9242 110.359 36.9469 111.205 38.3809C112.051 39.815 112.698 41.7192 113.145 44.0937C113.591 46.4446 113.815 49.3715 113.815 52.8744C113.815 56.2832 113.509 59.2454 112.898 61.7609C112.287 64.2764 111.487 66.4157 110.5 68.1789C109.512 69.9421 108.396 71.3761 107.15 72.4811C105.904 73.6095 104.646 74.4911 103.377 75.1259C102.107 75.7606 100.885 76.1955 99.7091 76.4306C98.5572 76.6892 97.558 76.8303 96.7117 76.8538L96.3238 75.408C97.0291 75.2434 97.6756 74.9848 98.2633 74.6322C98.8745 74.2795 99.427 73.7623 99.9207 73.0806C100.414 72.3988 100.849 71.5407 101.225 70.5063C101.602 69.4484 101.919 68.1319 102.178 66.5568C102.46 64.9816 102.66 63.1244 102.777 60.9851C102.918 58.8222 102.989 56.3067 102.989 53.4386ZM119.598 48.819C119.598 46.4211 120.009 44.3288 120.832 42.5421C121.679 40.7318 122.807 39.2273 124.218 38.0283C125.628 36.8058 127.262 35.9007 129.119 35.313C130.976 34.7017 132.928 34.3961 134.973 34.3961C137.018 34.3961 138.958 34.6665 140.792 35.2072C142.625 35.7479 144.247 36.5825 145.658 37.7109C146.105 37.0291 146.469 36.3121 146.751 35.5598C147.033 34.8075 147.174 34.0552 147.174 33.3029C147.174 32.3155 146.904 31.528 146.363 30.9402C145.846 30.3525 145.176 30.0586 144.353 30.0586V29.036C144.87 28.8714 145.329 28.7304 145.728 28.6128C146.128 28.4718 146.493 28.366 146.822 28.2955C147.151 28.2249 147.48 28.1779 147.809 28.1544C148.138 28.1074 148.503 28.0839 148.902 28.0839C150.007 28.0839 150.853 28.4248 151.441 29.1065C152.029 29.7883 152.323 30.7287 152.323 31.9276C152.323 32.6329 152.158 33.3382 151.829 34.0435C151.5 34.7252 151.089 35.3835 150.595 36.0182C150.101 36.653 149.549 37.2525 148.937 37.8167C148.35 38.3809 147.786 38.8746 147.245 39.2978C148.232 40.4262 148.996 41.7427 149.537 43.2473C150.078 44.7519 150.348 46.4681 150.348 48.3959C150.348 50.8173 149.925 52.9567 149.079 54.8139C148.256 56.6711 147.139 58.2345 145.728 59.504C144.318 60.7735 142.684 61.7374 140.827 62.3956C138.97 63.0304 137.018 63.3477 134.973 63.3477C133.774 63.3477 132.599 63.2419 131.447 63.0304C130.295 62.8188 129.213 62.5132 128.202 62.1135C127.826 62.3956 127.497 62.7483 127.215 63.1714C126.956 63.5946 126.827 64.0648 126.827 64.582C126.827 65.4518 127.203 66.0983 127.955 66.5215C128.708 66.9447 129.707 67.2503 130.953 67.4383C132.199 67.6264 133.609 67.744 135.185 67.791C136.76 67.838 138.37 67.9203 140.016 68.0378C141.685 68.1319 143.307 68.3317 144.882 68.6373C146.457 68.9194 147.868 69.4014 149.114 70.0831C150.36 70.7414 151.359 71.6465 152.111 72.7985C152.864 73.9504 153.24 75.4432 153.24 77.277C153.24 78.617 152.958 79.816 152.393 80.8739C151.829 81.9553 151.065 82.8957 150.101 83.695C149.161 84.5178 148.056 85.2113 146.786 85.7756C145.54 86.3633 144.212 86.8335 142.802 87.1861C141.415 87.5623 139.992 87.8326 138.535 87.9972C137.101 88.1618 135.725 88.244 134.409 88.244C132.011 88.244 129.848 88.1147 127.92 87.8561C126.016 87.621 124.394 87.2449 123.054 86.7277C121.714 86.2105 120.679 85.5405 119.951 84.7176C119.222 83.8948 118.857 82.9074 118.857 81.7555C118.857 80.9327 119.045 80.1686 119.422 79.4633C119.798 78.7816 120.291 78.1468 120.903 77.5591C121.537 76.9949 122.243 76.4777 123.019 76.0075C123.794 75.5608 124.582 75.1376 125.381 74.738C124.206 74.2443 123.218 73.492 122.419 72.4811C121.643 71.4937 121.255 70.1772 121.255 68.5315C121.255 67.6617 121.408 66.8624 121.714 66.1336C122.019 65.3813 122.407 64.6995 122.877 64.0883C123.371 63.4535 123.9 62.8893 124.464 62.3956C125.052 61.8784 125.616 61.4435 126.157 61.0909C125.193 60.5266 124.3 59.8449 123.477 59.0455C122.678 58.2227 121.984 57.3059 121.396 56.295C120.832 55.2606 120.385 54.1204 120.056 52.8744C119.751 51.6284 119.598 50.2766 119.598 48.819ZM139.734 48.5369C139.734 47.1734 139.663 45.8451 139.522 44.5521C139.381 43.2591 139.134 42.1071 138.781 41.0962C138.429 40.0853 137.947 39.2743 137.336 38.663C136.724 38.0283 135.937 37.7109 134.973 37.7109C134.009 37.7109 133.222 38.04 132.61 38.6983C131.999 39.333 131.517 40.1794 131.164 41.2373C130.812 42.2717 130.565 43.4589 130.424 44.7989C130.283 46.1155 130.212 47.4555 130.212 48.819C130.212 50.2061 130.283 51.5696 130.424 52.9096C130.565 54.2497 130.812 55.4486 131.164 56.5065C131.517 57.5645 131.999 58.4226 132.61 59.0808C133.222 59.7156 134.009 60.0329 134.973 60.0329C135.937 60.0329 136.724 59.6921 137.336 59.0103C137.947 58.3285 138.429 57.4469 138.781 56.3655C139.134 55.2606 139.381 54.0263 139.522 52.6628C139.663 51.2993 139.734 49.924 139.734 48.5369ZM145.094 80.0981C145.094 79.3458 144.8 78.7228 144.212 78.2291C143.624 77.7589 142.849 77.371 141.885 77.0654C140.944 76.7833 139.863 76.5599 138.64 76.3954C137.441 76.2543 136.219 76.1368 134.973 76.0427C133.727 75.9722 132.516 75.9017 131.341 75.8312C130.165 75.7606 129.143 75.6666 128.273 75.549C127.779 75.9017 127.297 76.2778 126.827 76.6775C126.38 77.1006 125.981 77.5356 125.628 77.9822C125.299 78.4524 125.029 78.9344 124.817 79.4281C124.605 79.9453 124.5 80.4625 124.5 80.9797C124.5 81.873 124.758 82.6136 125.275 83.2013C125.793 83.8125 126.486 84.2945 127.356 84.6471C128.249 84.9998 129.272 85.2466 130.424 85.3877C131.599 85.5287 132.834 85.5992 134.127 85.5992C135.843 85.5992 137.383 85.4464 138.746 85.1408C140.11 84.8587 141.262 84.459 142.202 83.9418C143.142 83.4481 143.859 82.8722 144.353 82.2139C144.847 81.5557 145.094 80.8504 145.094 80.0981ZM168.826 43.9879C169.649 42.8829 170.531 41.7663 171.471 40.6378C172.411 39.4859 173.422 38.4514 174.504 37.5346C175.585 36.6177 176.761 35.8654 178.03 35.2777C179.3 34.69 180.687 34.3961 182.191 34.3961C183.531 34.3961 184.648 34.6665 185.541 35.2072C186.435 35.7244 187.152 36.3591 187.692 37.1114C188.257 37.8402 188.645 38.6043 188.856 39.4036C189.091 40.2029 189.209 40.8847 189.209 41.4489C189.209 42.4833 189.068 43.5647 188.786 44.6932C188.527 45.7981 188.069 46.903 187.41 48.008C186.776 49.0894 185.918 50.1473 184.836 51.1817C183.755 52.1926 182.391 53.1212 180.745 53.9676C182.955 58.6459 185.106 62.6777 187.199 66.0631C189.291 69.4249 191.301 72.1872 193.229 74.3501C195.18 76.5364 197.049 78.1468 198.836 79.1812C200.623 80.2156 202.327 80.7328 203.949 80.7328C204.231 80.7328 204.513 80.6976 204.795 80.627C205.078 80.5565 205.336 80.4742 205.571 80.3802C205.83 80.2862 206.1 80.1686 206.382 80.0276L207.052 81.2618C206.418 81.6144 205.771 81.9436 205.113 82.2492C204.455 82.5783 203.702 82.8604 202.856 83.0955C202.01 83.3306 201.034 83.5187 199.929 83.6597C198.824 83.8008 197.508 83.8713 195.979 83.8713C194.592 83.8713 193.217 83.7067 191.854 83.3776C190.514 83.0485 189.162 82.4608 187.798 81.6144C186.435 80.7681 185.048 79.6396 183.637 78.2291C182.25 76.8185 180.816 75.0318 179.335 72.869C177.877 70.7061 176.373 68.1319 174.821 65.1462C173.27 62.1605 171.659 58.6694 169.99 54.6728C172.247 53.0037 174.022 51.4638 175.315 50.0533C176.608 48.6192 177.583 47.3262 178.242 46.1742C178.9 45.0223 179.311 43.9996 179.476 43.1063C179.641 42.2129 179.723 41.4489 179.723 40.8141C179.723 40.7201 179.711 40.5673 179.688 40.3557C179.664 40.1206 179.582 39.8973 179.441 39.6857C179.323 39.4741 179.135 39.286 178.876 39.1215C178.641 38.9569 178.301 38.8746 177.854 38.8746C176.984 38.8746 176.102 39.2508 175.209 40.0031C174.316 40.7318 173.458 41.6487 172.635 42.7536C171.835 43.8351 171.107 45.0105 170.448 46.28C169.79 47.526 169.249 48.6662 168.826 49.7006V67.8968C168.826 68.2024 168.768 68.5668 168.65 68.99C168.556 69.4131 168.309 69.8128 167.909 70.1889C167.533 70.5651 166.969 70.8825 166.217 71.1411C165.488 71.4232 164.501 71.5642 163.255 71.5642C162.009 71.5642 161.033 71.4114 160.328 71.1058C159.622 70.8237 159.093 70.4828 158.741 70.0831C158.412 69.6835 158.2 69.2721 158.106 68.8489C158.036 68.4257 158 68.0849 158 67.8263V22.3359C158 21.6541 157.836 21.0664 157.507 20.5727C157.201 20.0555 156.672 19.7969 155.92 19.7969C155.52 19.7969 155.167 19.8674 154.862 20.0084C154.58 20.126 154.274 20.3141 153.945 20.5727L153.24 19.7263C153.78 19.2797 154.38 18.8447 155.038 18.4216C155.696 17.9749 156.413 17.587 157.189 17.2579C157.989 16.9287 158.835 16.6584 159.728 16.4468C160.622 16.2352 161.562 16.1294 162.549 16.1294C164.077 16.1294 165.265 16.341 166.111 16.7642C166.957 17.1638 167.58 17.6693 167.98 18.2805C168.38 18.8682 168.615 19.503 168.685 20.1848C168.779 20.843 168.826 21.4308 168.826 21.948V43.9879ZM212.166 52.7333C212.166 52.1456 211.978 51.6989 211.601 51.3933C211.225 51.0877 210.743 50.9349 210.156 50.9349C209.333 50.9349 208.545 51.1229 207.793 51.4991C207.064 51.8752 206.418 52.4277 205.853 53.1565C205.289 53.8853 204.842 54.7904 204.513 55.8718C204.184 56.9297 204.02 58.164 204.02 59.5745C204.02 60.938 204.114 62.0665 204.302 62.9598C204.513 63.8532 204.784 64.5702 205.113 65.1109C205.465 65.6281 205.865 65.9925 206.312 66.2041C206.758 66.4157 207.229 66.5215 207.722 66.5215C208.334 66.5215 208.91 66.3687 209.45 66.0631C209.991 65.7339 210.461 65.3225 210.861 64.8288C211.26 64.3351 211.578 63.7827 211.813 63.1714C212.048 62.5602 212.166 61.9489 212.166 61.3377V52.7333ZM206.559 37.2877C205.759 37.2877 205.019 37.3818 204.337 37.5699C203.655 37.7579 203.068 37.993 202.574 38.2751C202.08 38.5572 201.692 38.8746 201.41 39.2273C201.128 39.5564 200.987 39.8738 200.987 40.1794C200.987 40.532 201.163 40.7906 201.516 40.9552C201.892 41.0962 202.303 41.2726 202.75 41.4841C203.197 41.6722 203.596 41.9543 203.949 42.3305C204.325 42.6831 204.513 43.2356 204.513 43.9879C204.513 44.4816 204.408 44.94 204.196 45.3632C204.008 45.7628 203.738 46.1272 203.385 46.4563C203.056 46.762 202.656 47.0088 202.186 47.1969C201.739 47.3615 201.269 47.4437 200.775 47.4437C199.459 47.4437 198.389 46.9971 197.566 46.1037C196.767 45.2104 196.367 44.0231 196.367 42.5421C196.367 41.108 196.744 39.8855 197.496 38.8746C198.248 37.8402 199.224 36.9939 200.423 36.3356C201.645 35.6774 203.02 35.1954 204.549 34.8898C206.077 34.5607 207.605 34.3961 209.133 34.3961C210.967 34.3961 212.718 34.5959 214.387 34.9956C216.056 35.3952 217.526 36.03 218.795 36.8998C220.088 37.7697 221.111 38.8746 221.863 40.2146C222.639 41.5547 223.027 43.1768 223.027 45.0811V65.0051C223.027 65.2167 223.039 65.4518 223.062 65.7104C223.086 65.969 223.144 66.2041 223.238 66.4157C223.332 66.6273 223.474 66.8036 223.662 66.9447C223.85 67.0857 224.12 67.1562 224.473 67.1562C224.896 67.1562 225.284 67.0034 225.636 66.6978C226.013 66.3687 226.342 66.0395 226.624 65.7104L227.505 66.451C227.153 66.9447 226.73 67.4854 226.236 68.0731C225.742 68.6608 225.143 69.2133 224.437 69.7305C223.732 70.2477 222.909 70.6826 221.969 71.0353C221.029 71.3879 219.959 71.5642 218.76 71.5642C217.279 71.5642 215.962 71.1293 214.81 70.2595C213.658 69.3661 212.906 68.0026 212.553 66.1688C211.801 67.1797 211.014 68.0261 210.191 68.7078C209.392 69.3896 208.569 69.9421 207.722 70.3653C206.876 70.7884 206.018 71.094 205.148 71.2821C204.302 71.4702 203.444 71.5642 202.574 71.5642C201.445 71.5642 200.352 71.3879 199.294 71.0353C198.236 70.6826 197.284 70.1302 196.438 69.3779C195.615 68.6021 194.945 67.6029 194.428 66.3804C193.934 65.158 193.687 63.6651 193.687 61.9019C193.687 59.7626 194.11 58.0111 194.957 56.6476C195.803 55.2841 196.908 54.1439 198.272 53.227C199.659 52.2866 201.222 51.4873 202.962 50.8291C204.725 50.1708 206.523 49.4773 208.357 48.7485C209.721 48.2078 210.708 47.4085 211.319 46.3506C211.954 45.2691 212.271 44.1642 212.271 43.0358C212.271 41.2961 211.754 39.909 210.72 38.8746C209.709 37.8167 208.322 37.2877 206.559 37.2877ZM289.076 39.9325C289.076 44.2347 288.653 48.3959 287.807 52.4159C286.984 56.4125 285.832 60.174 284.351 63.7004C282.893 67.2033 281.153 70.4005 279.132 73.2922C277.11 76.2073 274.912 78.6993 272.537 80.7681C270.163 82.8369 267.647 84.4473 264.991 85.5992C262.358 86.7512 259.69 87.3272 256.986 87.3272C254.917 87.3272 253.319 86.9745 252.19 86.2693C251.062 85.5875 250.497 84.6589 250.497 83.4834C250.497 83.0367 250.568 82.6018 250.709 82.1786C250.85 81.7555 251.038 81.3793 251.273 81.0502C251.508 80.7211 251.79 80.4507 252.12 80.2391C252.449 80.0511 252.801 79.957 253.177 79.957C253.624 79.957 254 80.1804 254.306 80.627C254.588 81.0737 254.894 81.5557 255.223 82.0729C255.552 82.6136 255.952 83.1073 256.422 83.5539C256.892 84.0006 257.538 84.224 258.361 84.224C259.419 84.224 260.524 84.0359 261.676 83.6597C262.828 83.3071 263.98 82.7899 265.132 82.1081C266.307 81.4264 267.471 80.5918 268.623 79.6044C269.799 78.6405 270.95 77.5591 272.079 76.3601C271.421 73.9857 270.657 71.3997 269.787 68.6021C268.94 65.7809 268.035 62.9481 267.071 60.1035C266.131 57.2588 265.155 54.52 264.145 51.887C263.157 49.2304 262.182 46.8795 261.218 44.8342C260.277 42.7889 259.36 41.155 258.467 39.9325C257.597 38.6865 256.821 38.0635 256.14 38.0635C255.693 38.0635 255.352 38.1341 255.117 38.2751C254.858 38.4162 254.565 38.616 254.235 38.8746L253.53 37.993C254 37.5934 254.494 37.1819 255.011 36.7588C255.528 36.3356 256.14 35.9477 256.845 35.5951C257.55 35.2424 258.373 34.9603 259.313 34.7487C260.254 34.5136 261.382 34.3961 262.699 34.3961C264.133 34.3961 265.461 34.7252 266.684 35.3835C267.93 36.0182 269.058 37.2055 270.069 38.9451C270.798 40.2382 271.55 41.7898 272.326 43.6C273.125 45.4102 273.924 47.432 274.724 49.6654C275.523 51.8987 276.322 54.3202 277.122 56.9297C277.944 59.5157 278.767 62.2311 279.59 65.0757C281.048 62.0195 282.223 58.7869 283.116 55.3781C284.01 51.9458 284.457 48.4194 284.457 44.7989C284.457 43.5059 284.374 42.401 284.21 41.4841C284.045 40.5673 283.857 39.7915 283.645 39.1567C283.434 38.4985 283.246 37.946 283.081 37.4993C282.917 37.0291 282.834 36.6177 282.834 36.2651C282.834 35.9124 282.975 35.6186 283.258 35.3835C283.54 35.1249 283.881 34.9251 284.28 34.784C284.68 34.643 285.08 34.5489 285.479 34.5019C285.902 34.4314 286.255 34.3961 286.537 34.3961C287.172 34.3961 287.654 34.5254 287.983 34.784C288.336 35.0426 288.594 35.4188 288.759 35.9124C288.923 36.3826 289.017 36.9586 289.041 37.6404C289.064 38.3221 289.076 39.0862 289.076 39.9325Z" fill="#3F2305"/>
<path d="M243.515 41.8368C244.409 40.4732 245.361 39.239 246.372 38.1341C246.795 37.6639 247.253 37.2055 247.747 36.7588C248.241 36.3121 248.746 35.9124 249.263 35.5598C249.804 35.2072 250.356 34.9251 250.921 34.7135C251.485 34.5019 252.049 34.3961 252.613 34.3961C253.812 34.3961 254.753 34.7605 255.434 35.4893C256.116 36.1946 256.457 37.1937 256.457 38.4867C256.457 39.286 256.386 40.0618 256.245 40.8141C256.128 41.5429 255.881 42.4363 255.505 43.4942H254.518C254.376 42.7654 254.047 42.1659 253.53 41.6957C253.013 41.202 252.261 40.9552 251.273 40.9552C250.544 40.9552 249.827 41.0962 249.122 41.3783C248.417 41.637 247.723 41.9661 247.042 42.3657C246.383 42.7654 245.749 43.2003 245.137 43.6705C244.55 44.1407 244.009 44.5874 243.515 45.0105V67.8968C243.515 68.2024 243.468 68.5668 243.374 68.99C243.28 69.4131 243.045 69.8128 242.669 70.1889C242.316 70.5651 241.775 70.8825 241.047 71.1411C240.341 71.4232 239.366 71.5642 238.12 71.5642C236.874 71.5642 235.886 71.4114 235.158 71.1058C234.452 70.8237 233.912 70.4828 233.536 70.0831C233.159 69.6835 232.924 69.2721 232.83 68.8489C232.736 68.4257 232.689 68.0849 232.689 67.8263V40.6025C232.689 39.9208 232.525 39.333 232.195 38.8394C231.89 38.3221 231.361 38.0635 230.609 38.0635C230.209 38.0635 229.868 38.1341 229.586 38.2751C229.304 38.4162 228.998 38.616 228.669 38.8746L227.929 37.993C228.469 37.5463 229.069 37.1114 229.727 36.6883C230.409 36.2416 231.138 35.8537 231.913 35.5245C232.689 35.1954 233.524 34.9251 234.417 34.7135C235.31 34.5019 236.251 34.3961 237.238 34.3961C238.249 34.3961 239.107 34.5372 239.812 34.8193C240.541 35.0779 241.129 35.4305 241.576 35.8772C242.046 36.3004 242.41 36.7823 242.669 37.323C242.927 37.8637 243.116 38.4162 243.233 38.9804C243.374 39.5211 243.456 40.0501 243.48 40.5673C243.503 41.061 243.515 41.4841 243.515 41.8368ZM311.539 52.7333C311.539 52.1456 311.351 51.6989 310.975 51.3933C310.599 51.0877 310.117 50.9349 309.529 50.9349C308.706 50.9349 307.919 51.1229 307.166 51.4991C306.438 51.8752 305.791 52.4277 305.227 53.1565C304.663 53.8853 304.216 54.7904 303.887 55.8718C303.558 56.9297 303.393 58.164 303.393 59.5745C303.393 60.938 303.487 62.0665 303.675 62.9598C303.887 63.8532 304.157 64.5702 304.486 65.1109C304.839 65.6281 305.239 65.9925 305.685 66.2041C306.132 66.4157 306.602 66.5215 307.096 66.5215C307.707 66.5215 308.283 66.3687 308.824 66.0631C309.365 65.7339 309.835 65.3225 310.234 64.8288C310.634 64.3351 310.951 63.7827 311.187 63.1714C311.422 62.5602 311.539 61.9489 311.539 61.3377V52.7333ZM305.932 37.2877C305.133 37.2877 304.392 37.3818 303.711 37.5699C303.029 37.7579 302.441 37.993 301.947 38.2751C301.454 38.5572 301.066 38.8746 300.784 39.2273C300.502 39.5564 300.361 39.8738 300.361 40.1794C300.361 40.532 300.537 40.7906 300.889 40.9552C301.266 41.0962 301.677 41.2726 302.124 41.4841C302.57 41.6722 302.97 41.9543 303.323 42.3305C303.699 42.6831 303.887 43.2356 303.887 43.9879C303.887 44.4816 303.781 44.94 303.57 45.3632C303.381 45.7628 303.111 46.1272 302.758 46.4563C302.429 46.762 302.03 47.0088 301.56 47.1969C301.113 47.3615 300.643 47.4437 300.149 47.4437C298.832 47.4437 297.763 46.9971 296.94 46.1037C296.141 45.2104 295.741 44.0231 295.741 42.5421C295.741 41.108 296.117 39.8855 296.869 38.8746C297.622 37.8402 298.597 36.9939 299.796 36.3356C301.019 35.6774 302.394 35.1954 303.922 34.8898C305.45 34.5607 306.978 34.3961 308.506 34.3961C310.34 34.3961 312.092 34.5959 313.761 34.9956C315.43 35.3952 316.899 36.03 318.169 36.8998C319.462 37.7697 320.484 38.8746 321.237 40.2146C322.013 41.5547 322.4 43.1768 322.4 45.0811V65.0051C322.4 65.2167 322.412 65.4518 322.436 65.7104C322.459 65.969 322.518 66.2041 322.612 66.4157C322.706 66.6273 322.847 66.8036 323.035 66.9447C323.223 67.0857 323.494 67.1562 323.846 67.1562C324.269 67.1562 324.657 67.0034 325.01 66.6978C325.386 66.3687 325.715 66.0395 325.997 65.7104L326.879 66.451C326.526 66.9447 326.103 67.4854 325.609 68.0731C325.116 68.6608 324.516 69.2133 323.811 69.7305C323.106 70.2477 322.283 70.6826 321.343 71.0353C320.402 71.3879 319.332 71.5642 318.134 71.5642C316.652 71.5642 315.336 71.1293 314.184 70.2595C313.032 69.3661 312.28 68.0026 311.927 66.1688C311.175 67.1797 310.387 68.0261 309.564 68.7078C308.765 69.3896 307.942 69.9421 307.096 70.3653C306.25 70.7884 305.392 71.094 304.522 71.2821C303.675 71.4702 302.817 71.5642 301.947 71.5642C300.819 71.5642 299.726 71.3879 298.668 71.0353C297.61 70.6826 296.658 70.1302 295.811 69.3779C294.989 68.6021 294.319 67.6029 293.801 66.3804C293.308 65.158 293.061 63.6651 293.061 61.9019C293.061 59.7626 293.484 58.0111 294.33 56.6476C295.177 55.2841 296.282 54.1439 297.645 53.227C299.032 52.2866 300.596 51.4873 302.335 50.8291C304.098 50.1708 305.897 49.4773 307.731 48.7485C309.094 48.2078 310.082 47.4085 310.693 46.3506C311.328 45.2691 311.645 44.1642 311.645 43.0358C311.645 41.2961 311.128 39.909 310.093 38.8746C309.082 37.8167 307.695 37.2877 305.932 37.2877Z" fill="#DFD7BF"/>
</svg>
