<svg width="327" height="90" viewBox="0 0 327 90" fill="none" xmlns="http://www.w3.org/2000/svg">
<path d="M29.6922 64.723C29.6922 65.2637 29.7392 65.7809 29.8332 66.2746C29.9508 66.7448 30.1624 67.1562 30.468 67.5089C30.7971 67.8615 31.232 68.1436 31.7727 68.3552C32.337 68.5668 33.0658 68.6726 33.9591 68.6726C35.2521 68.6726 36.4393 68.3082 37.5208 67.5794C38.6022 66.8271 39.5308 65.875 40.3066 64.723C41.0824 63.5476 41.6819 62.2428 42.1051 60.8087C42.5282 59.3512 42.7398 57.9053 42.7398 56.4713C42.7398 54.3319 42.4459 52.4512 41.8582 50.8291C41.294 49.1834 40.4947 47.7964 39.4603 46.6679C38.4259 45.5395 37.2034 44.6696 35.7928 44.0584C34.3823 43.4237 32.8542 43.0593 31.2085 42.9652L31.9138 41.1668C32.9482 41.2138 33.9356 41.0727 34.876 40.7436C35.8163 40.4145 36.6392 39.8385 37.3444 39.0157C38.0732 38.1928 38.6492 37.0879 39.0724 35.7009C39.4955 34.2903 39.7071 32.5271 39.7071 30.4113C39.7071 28.9772 39.5308 27.6842 39.1782 26.5323C38.8255 25.3803 38.3553 24.4164 37.7676 23.6406C37.2034 22.8413 36.5334 22.2301 35.7576 21.8069C35.0053 21.3837 34.2295 21.1722 33.4301 21.1722C32.9365 21.1722 32.4545 21.2309 31.9843 21.3485C31.5377 21.466 31.138 21.6658 30.7854 21.948C30.4562 22.2301 30.1859 22.6062 29.9743 23.0764C29.7862 23.5231 29.6922 24.0873 29.6922 24.7691V64.723ZM30.3975 18.2805C37.2151 18.2805 42.2226 19.3502 45.4199 21.4895C48.6406 23.6054 50.251 26.6968 50.251 30.7639C50.251 31.7748 50.1335 32.7034 49.8984 33.5498C49.6868 34.3961 49.4047 35.1719 49.052 35.8772C48.6994 36.559 48.2997 37.1702 47.8531 37.7109C47.4064 38.2516 46.948 38.7218 46.4778 39.1215C45.3728 40.0853 44.1269 40.8376 42.7398 41.3783V41.9073C44.9262 42.1659 46.8892 42.8242 48.6289 43.8821C49.3577 44.3288 50.0747 44.893 50.78 45.5747C51.4853 46.233 52.1082 47.0441 52.649 48.008C53.2132 48.9483 53.6599 50.0533 53.989 51.3228C54.3416 52.5688 54.5179 54.0028 54.5179 55.625C54.5179 58.0934 54.0713 60.315 53.1779 62.2898C52.2846 64.2646 50.9563 65.9455 49.1931 67.3326C47.4299 68.6961 45.2318 69.7423 42.5988 70.471C39.9657 71.1998 36.9095 71.5642 33.4301 71.5642C30.2094 71.5642 27.5881 71.3644 25.5663 70.9647C23.5445 70.5651 21.9694 69.9891 20.8409 69.2368C19.7125 68.461 18.9367 67.5324 18.5135 66.451C18.1139 65.3695 17.914 64.1471 17.914 62.7835V24.2048C17.914 22.9118 17.0207 22.2653 15.234 22.2653C13.941 22.2653 12.6245 22.4652 11.2844 22.8648C9.96792 23.241 8.76895 23.7699 7.68752 24.4517C6.62961 25.11 5.75977 25.9093 5.078 26.8496C4.39623 27.7665 4.05535 28.7656 4.05535 29.8471C4.05535 30.5994 4.14938 31.1988 4.33746 31.6455C4.54904 32.0922 4.78413 32.4331 5.04273 32.6682C5.30134 32.8798 5.55994 33.0208 5.81854 33.0913C6.10065 33.1384 6.30048 33.1619 6.41802 33.1619C7.00576 33.1619 7.4877 33.0678 7.86384 32.8798C8.23999 32.6682 8.58088 32.4566 8.8865 32.245C9.19212 32.0099 9.47423 31.7983 9.73283 31.6103C10.0149 31.3987 10.3323 31.2929 10.685 31.2929C10.9671 31.2929 11.2609 31.3634 11.5665 31.5045C11.8957 31.622 12.1895 31.8218 12.4481 32.104C12.7303 32.3861 12.9653 32.7622 13.1534 33.2324C13.3415 33.6791 13.4355 34.2315 13.4355 34.8898C13.4355 35.8302 13.2475 36.6412 12.8713 37.323C12.5187 38.0048 12.0485 38.5807 11.4608 39.0509C10.8965 39.4976 10.2383 39.8385 9.48598 40.0736C8.75719 40.2852 8.02841 40.391 7.29962 40.391C6.17118 40.391 5.14853 40.2029 4.23166 39.8267C3.33831 39.4271 2.57426 38.8864 1.93951 38.2046C1.30476 37.5228 0.822824 36.7235 0.493694 35.8067C0.164565 34.8898 0 33.9142 0 32.8798C0 30.9285 0.364393 29.2123 1.09318 27.7312C1.82197 26.2266 2.84462 24.9336 4.16114 23.8522C5.50116 22.7708 7.09979 21.8774 8.95702 21.1722C10.8143 20.4434 12.8713 19.8674 15.1282 19.4442C17.3851 19.0211 19.7948 18.7272 22.3573 18.5626C24.9433 18.3746 27.6234 18.2805 30.3975 18.2805ZM72.3615 67.8263C72.3615 68.1319 72.3027 68.508 72.1851 68.9547C72.0911 69.3779 71.8443 69.7893 71.4446 70.1889C71.0685 70.5651 70.516 70.8825 69.7872 71.1411C69.0584 71.4232 68.071 71.5642 66.825 71.5642C65.579 71.5642 64.6034 71.4114 63.8981 71.1058C63.1929 70.8237 62.6639 70.4828 62.3113 70.0831C61.9586 69.6835 61.7353 69.2721 61.6412 68.8489C61.5707 68.4257 61.5355 68.0849 61.5355 67.8263V40.6025C61.5355 39.9208 61.3709 39.333 61.0418 38.8394C60.7361 38.3221 60.2072 38.0635 59.4549 38.0635C59.0552 38.0635 58.7143 38.1341 58.4322 38.2751C58.1501 38.4162 57.8445 38.616 57.5154 38.8746L56.7748 37.993C57.3155 37.5463 57.915 37.1114 58.5733 36.6883C59.2551 36.2416 59.9838 35.8537 60.7596 35.5245C61.5355 35.1954 62.37 34.9251 63.2634 34.7135C64.1567 34.5019 65.0971 34.3961 66.0845 34.3961C67.6126 34.3961 68.7998 34.6077 69.6461 35.0309C70.4925 35.4305 71.1155 35.936 71.5151 36.5472C71.9148 37.1349 72.1499 37.7697 72.2204 38.4514C72.3144 39.1332 72.3615 39.7327 72.3615 40.2499V67.8263ZM60.4423 26.3559C60.4423 25.6977 60.5833 25.0747 60.8654 24.487C61.1711 23.8757 61.5825 23.3468 62.0997 22.9001C62.6404 22.4534 63.2516 22.1008 63.9334 21.8422C64.6387 21.5836 65.4027 21.4543 66.2255 21.4543C67.0249 21.4543 67.7654 21.5836 68.4472 21.8422C69.1524 22.1008 69.7637 22.4534 70.2809 22.9001C70.7981 23.3468 71.1978 23.8757 71.4799 24.487C71.7855 25.0747 71.9383 25.6977 71.9383 26.3559C71.9383 27.0377 71.7855 27.6725 71.4799 28.2602C71.1978 28.8479 70.7981 29.3651 70.2809 29.8118C69.7637 30.235 69.1524 30.5759 68.4472 30.8345C67.7654 31.0931 67.0249 31.2224 66.2255 31.2224C65.4027 31.2224 64.6387 31.0931 63.9334 30.8345C63.2516 30.5759 62.6404 30.235 62.0997 29.8118C61.5825 29.3651 61.1711 28.8479 60.8654 28.2602C60.5833 27.6725 60.4423 27.0377 60.4423 26.3559ZM102.018 53.4386C102.018 50.4764 101.877 48.1137 101.595 46.3506C101.337 44.5639 100.984 43.2121 100.537 42.2952C100.091 41.3548 99.5969 40.7436 99.0562 40.4615C98.5155 40.1559 97.963 40.0031 97.3988 40.0031C96.717 40.0031 96.1058 40.1911 95.5651 40.5673C95.0479 40.9199 94.5895 41.3313 94.1898 41.8015C93.8136 42.2717 93.4845 42.7419 93.2024 43.2121C92.9438 43.6823 92.7205 44.0349 92.5324 44.27V67.8263C92.5324 68.1319 92.4854 68.508 92.3913 68.9547C92.2973 69.3779 92.0622 69.7893 91.6861 70.1889C91.3334 70.5651 90.7927 70.8825 90.0639 71.1411C89.3586 71.4232 88.383 71.5642 87.137 71.5642C85.891 71.5642 84.9036 71.4114 84.1749 71.1058C83.4696 70.8237 82.9289 70.4828 82.5527 70.0831C82.1766 69.6835 81.9415 69.2721 81.8474 68.8489C81.7534 68.4257 81.7064 68.0849 81.7064 67.8263V40.6025C81.7064 39.9208 81.5418 39.333 81.2127 38.8394C80.9071 38.3221 80.3781 38.0635 79.6258 38.0635C79.2262 38.0635 78.8853 38.1341 78.6032 38.2751C78.3211 38.4162 78.0154 38.616 77.6863 38.8746L76.9458 37.993C77.4865 37.5463 78.086 37.1114 78.7442 36.6883C79.426 36.2416 80.1548 35.8537 80.9306 35.5245C81.7064 35.1954 82.541 34.9251 83.4343 34.7135C84.3277 34.5019 85.268 34.3961 86.2554 34.3961C87.7835 34.3961 88.9707 34.6547 89.8171 35.1719C90.6634 35.6656 91.2864 36.2651 91.6861 36.9704C92.0857 37.6756 92.3208 38.4162 92.3913 39.192C92.4854 39.9443 92.5324 40.579 92.5324 41.0962C93.4022 39.8502 94.3896 38.7336 95.4946 37.7462C95.9412 37.323 96.4349 36.9116 96.9756 36.5119C97.5399 36.1123 98.1276 35.7596 98.7388 35.454C99.3736 35.1249 100.032 34.8663 100.714 34.6782C101.419 34.4901 102.136 34.3961 102.865 34.3961C104.463 34.3961 105.874 34.7017 107.096 35.313C108.342 35.9242 109.389 36.9469 110.235 38.3809C111.081 39.815 111.728 41.7192 112.174 44.0937C112.621 46.4446 112.844 49.3715 112.844 52.8744C112.844 56.2832 112.539 59.2454 111.928 61.7609C111.316 64.2764 110.517 66.4157 109.53 68.1789C108.542 69.9421 107.426 71.3761 106.18 72.4811C104.934 73.6095 103.676 74.4911 102.406 75.1259C101.137 75.7606 99.9143 76.1955 98.7388 76.4306C97.5869 76.6892 96.5877 76.8303 95.7414 76.8538L95.3535 75.408C96.0588 75.2434 96.7053 74.9848 97.293 74.6322C97.9043 74.2795 98.4567 73.7623 98.9504 73.0806C99.4441 72.3988 99.879 71.5407 100.255 70.5063C100.631 69.4484 100.949 68.1319 101.207 66.5568C101.489 64.9816 101.689 63.1244 101.807 60.9851C101.948 58.8222 102.018 56.3067 102.018 53.4386ZM118.628 48.819C118.628 46.4211 119.039 44.3288 119.862 42.5421C120.708 40.7318 121.837 39.2273 123.247 38.0283C124.658 36.8058 126.292 35.9007 128.149 35.313C130.006 34.7017 131.957 34.3961 134.003 34.3961C136.048 34.3961 137.988 34.6665 139.821 35.2072C141.655 35.7479 143.277 36.5825 144.688 37.7109C145.134 37.0291 145.499 36.3121 145.781 35.5598C146.063 34.8075 146.204 34.0552 146.204 33.3029C146.204 32.3155 145.934 31.528 145.393 30.9402C144.876 30.3525 144.206 30.0586 143.383 30.0586V29.036C143.9 28.8714 144.359 28.7304 144.758 28.6128C145.158 28.4718 145.522 28.366 145.851 28.2955C146.18 28.2249 146.51 28.1779 146.839 28.1544C147.168 28.1074 147.532 28.0839 147.932 28.0839C149.037 28.0839 149.883 28.4248 150.471 29.1065C151.059 29.7883 151.353 30.7287 151.353 31.9276C151.353 32.6329 151.188 33.3382 150.859 34.0435C150.53 34.7252 150.118 35.3835 149.625 36.0182C149.131 36.653 148.578 37.2525 147.967 37.8167C147.379 38.3809 146.815 38.8746 146.275 39.2978C147.262 40.4262 148.026 41.7427 148.567 43.2473C149.107 44.7519 149.378 46.4681 149.378 48.3959C149.378 50.8173 148.955 52.9567 148.108 54.8139C147.285 56.6711 146.169 58.2345 144.758 59.504C143.348 60.7735 141.714 61.7374 139.857 62.3956C137.999 63.0304 136.048 63.3477 134.003 63.3477C132.804 63.3477 131.628 63.2419 130.476 63.0304C129.324 62.8188 128.243 62.5132 127.232 62.1135C126.856 62.3956 126.527 62.7483 126.245 63.1714C125.986 63.5946 125.857 64.0648 125.857 64.582C125.857 65.4518 126.233 66.0983 126.985 66.5215C127.737 66.9447 128.737 67.2503 129.983 67.4383C131.229 67.6264 132.639 67.744 134.214 67.791C135.789 67.838 137.4 67.9203 139.045 68.0378C140.715 68.1319 142.337 68.3317 143.912 68.6373C145.487 68.9194 146.898 69.4014 148.144 70.0831C149.39 70.7414 150.389 71.6465 151.141 72.7985C151.893 73.9504 152.269 75.4432 152.269 77.277C152.269 78.617 151.987 79.816 151.423 80.8739C150.859 81.9553 150.095 82.8957 149.131 83.695C148.191 84.5178 147.086 85.2113 145.816 85.7756C144.57 86.3633 143.242 86.8335 141.831 87.1861C140.444 87.5623 139.022 87.8326 137.564 87.9972C136.13 88.1618 134.755 88.244 133.438 88.244C131.041 88.244 128.878 88.1147 126.95 87.8561C125.046 87.621 123.424 87.2449 122.084 86.7277C120.743 86.2105 119.709 85.5405 118.98 84.7176C118.252 83.8948 117.887 82.9074 117.887 81.7555C117.887 80.9327 118.075 80.1686 118.451 79.4633C118.827 78.7816 119.321 78.1468 119.932 77.5591C120.567 76.9949 121.272 76.4777 122.048 76.0075C122.824 75.5608 123.612 75.1376 124.411 74.738C123.235 74.2443 122.248 73.492 121.449 72.4811C120.673 71.4937 120.285 70.1772 120.285 68.5315C120.285 67.6617 120.438 66.8624 120.743 66.1336C121.049 65.3813 121.437 64.6995 121.907 64.0883C122.401 63.4535 122.93 62.8893 123.494 62.3956C124.082 61.8784 124.646 61.4435 125.187 61.0909C124.223 60.5266 123.33 59.8449 122.507 59.0455C121.707 58.2227 121.014 57.3059 120.426 56.295C119.862 55.2606 119.415 54.1204 119.086 52.8744C118.78 51.6284 118.628 50.2766 118.628 48.819ZM138.763 48.5369C138.763 47.1734 138.693 45.8451 138.552 44.5521C138.411 43.2591 138.164 42.1071 137.811 41.0962C137.459 40.0853 136.977 39.2743 136.365 38.663C135.754 38.0283 134.967 37.7109 134.003 37.7109C133.039 37.7109 132.251 38.04 131.64 38.6983C131.029 39.333 130.547 40.1794 130.194 41.2373C129.842 42.2717 129.595 43.4589 129.454 44.7989C129.313 46.1155 129.242 47.4555 129.242 48.819C129.242 50.2061 129.313 51.5696 129.454 52.9096C129.595 54.2497 129.842 55.4486 130.194 56.5065C130.547 57.5645 131.029 58.4226 131.64 59.0808C132.251 59.7156 133.039 60.0329 134.003 60.0329C134.967 60.0329 135.754 59.6921 136.365 59.0103C136.977 58.3285 137.459 57.4469 137.811 56.3655C138.164 55.2606 138.411 54.0263 138.552 52.6628C138.693 51.2993 138.763 49.924 138.763 48.5369ZM144.123 80.0981C144.123 79.3458 143.83 78.7228 143.242 78.2291C142.654 77.7589 141.878 77.371 140.914 77.0654C139.974 76.7833 138.893 76.5599 137.67 76.3954C136.471 76.2543 135.249 76.1368 134.003 76.0427C132.757 75.9722 131.546 75.9017 130.371 75.8312C129.195 75.7606 128.172 75.6666 127.303 75.549C126.809 75.9017 126.327 76.2778 125.857 76.6775C125.41 77.1006 125.01 77.5356 124.658 77.9822C124.329 78.4524 124.058 78.9344 123.847 79.4281C123.635 79.9453 123.529 80.4625 123.529 80.9797C123.529 81.873 123.788 82.6136 124.305 83.2013C124.822 83.8125 125.516 84.2945 126.386 84.6471C127.279 84.9998 128.302 85.2466 129.454 85.3877C130.629 85.5287 131.863 85.5992 133.156 85.5992C134.873 85.5992 136.412 85.4464 137.776 85.1408C139.139 84.8587 140.291 84.459 141.232 83.9418C142.172 83.4481 142.889 82.8722 143.383 82.2139C143.877 81.5557 144.123 80.8504 144.123 80.0981ZM167.856 43.9879C168.679 42.8829 169.56 41.7663 170.501 40.6378C171.441 39.4859 172.452 38.4514 173.534 37.5346C174.615 36.6177 175.79 35.8654 177.06 35.2777C178.329 34.69 179.716 34.3961 181.221 34.3961C182.561 34.3961 183.678 34.6665 184.571 35.2072C185.464 35.7244 186.181 36.3591 186.722 37.1114C187.286 37.8402 187.674 38.6043 187.886 39.4036C188.121 40.2029 188.239 40.8847 188.239 41.4489C188.239 42.4833 188.097 43.5647 187.815 44.6932C187.557 45.7981 187.098 46.903 186.44 48.008C185.805 49.0894 184.947 50.1473 183.866 51.1817C182.784 52.1926 181.421 53.1212 179.775 53.9676C181.985 58.6459 184.136 62.6777 186.228 66.0631C188.321 69.4249 190.331 72.1872 192.259 74.3501C194.21 76.5364 196.079 78.1468 197.866 79.1812C199.652 80.2156 201.357 80.7328 202.979 80.7328C203.261 80.7328 203.543 80.6976 203.825 80.627C204.107 80.5565 204.366 80.4742 204.601 80.3802C204.86 80.2862 205.13 80.1686 205.412 80.0276L206.082 81.2618C205.447 81.6144 204.801 81.9436 204.143 82.2492C203.484 82.5783 202.732 82.8604 201.886 83.0955C201.039 83.3306 200.064 83.5187 198.959 83.6597C197.854 83.8008 196.537 83.8713 195.009 83.8713C193.622 83.8713 192.247 83.7067 190.883 83.3776C189.543 83.0485 188.192 82.4608 186.828 81.6144C185.464 80.7681 184.077 79.6396 182.667 78.2291C181.28 76.8185 179.846 75.0318 178.365 72.869C176.907 70.7061 175.402 68.1319 173.851 65.1462C172.299 62.1605 170.689 58.6694 169.02 54.6728C171.277 53.0037 173.052 51.4638 174.345 50.0533C175.638 48.6192 176.613 47.3262 177.271 46.1742C177.93 45.0223 178.341 43.9996 178.506 43.1063C178.67 42.2129 178.753 41.4489 178.753 40.8141C178.753 40.7201 178.741 40.5673 178.717 40.3557C178.694 40.1206 178.611 39.8973 178.47 39.6857C178.353 39.4741 178.165 39.286 177.906 39.1215C177.671 38.9569 177.33 38.8746 176.884 38.8746C176.014 38.8746 175.132 39.2508 174.239 40.0031C173.345 40.7318 172.487 41.6487 171.665 42.7536C170.865 43.8351 170.136 45.0105 169.478 46.28C168.82 47.526 168.279 48.6662 167.856 49.7006V67.8968C167.856 68.2024 167.797 68.5668 167.68 68.99C167.586 69.4131 167.339 69.8128 166.939 70.1889C166.563 70.5651 165.999 70.8825 165.246 71.1411C164.518 71.4232 163.53 71.5642 162.284 71.5642C161.038 71.5642 160.063 71.4114 159.357 71.1058C158.652 70.8237 158.123 70.4828 157.771 70.0831C157.441 69.6835 157.23 69.2721 157.136 68.8489C157.065 68.4257 157.03 68.0849 157.03 67.8263V22.3359C157.03 21.6541 156.865 21.0664 156.536 20.5727C156.231 20.0555 155.702 19.7969 154.949 19.7969C154.55 19.7969 154.197 19.8674 153.892 20.0084C153.609 20.126 153.304 20.3141 152.975 20.5727L152.269 19.7263C152.81 19.2797 153.41 18.8447 154.068 18.4216C154.726 17.9749 155.443 17.587 156.219 17.2579C157.018 16.9287 157.865 16.6584 158.758 16.4468C159.651 16.2352 160.592 16.1294 161.579 16.1294C163.107 16.1294 164.294 16.341 165.141 16.7642C165.987 17.1638 166.61 17.6693 167.01 18.2805C167.409 18.8682 167.644 19.503 167.715 20.1848C167.809 20.843 167.856 21.4308 167.856 21.948V43.9879ZM211.195 52.7333C211.195 52.1456 211.007 51.6989 210.631 51.3933C210.255 51.0877 209.773 50.9349 209.185 50.9349C208.362 50.9349 207.575 51.1229 206.823 51.4991C206.094 51.8752 205.447 52.4277 204.883 53.1565C204.319 53.8853 203.872 54.7904 203.543 55.8718C203.214 56.9297 203.049 58.164 203.049 59.5745C203.049 60.938 203.143 62.0665 203.331 62.9598C203.543 63.8532 203.813 64.5702 204.143 65.1109C204.495 65.6281 204.895 65.9925 205.342 66.2041C205.788 66.4157 206.258 66.5215 206.752 66.5215C207.363 66.5215 207.939 66.3687 208.48 66.0631C209.021 65.7339 209.491 65.3225 209.891 64.8288C210.29 64.3351 210.608 63.7827 210.843 63.1714C211.078 62.5602 211.195 61.9489 211.195 61.3377V52.7333ZM205.588 37.2877C204.789 37.2877 204.049 37.3818 203.367 37.5699C202.685 37.7579 202.097 37.993 201.604 38.2751C201.11 38.5572 200.722 38.8746 200.44 39.2273C200.158 39.5564 200.017 39.8738 200.017 40.1794C200.017 40.532 200.193 40.7906 200.546 40.9552C200.922 41.0962 201.333 41.2726 201.78 41.4841C202.227 41.6722 202.626 41.9543 202.979 42.3305C203.355 42.6831 203.543 43.2356 203.543 43.9879C203.543 44.4816 203.437 44.94 203.226 45.3632C203.038 45.7628 202.767 46.1272 202.415 46.4563C202.085 46.762 201.686 47.0088 201.216 47.1969C200.769 47.3615 200.299 47.4437 199.805 47.4437C198.489 47.4437 197.419 46.9971 196.596 46.1037C195.797 45.2104 195.397 44.0231 195.397 42.5421C195.397 41.108 195.773 39.8855 196.526 38.8746C197.278 37.8402 198.253 36.9939 199.452 36.3356C200.675 35.6774 202.05 35.1954 203.578 34.8898C205.106 34.5607 206.635 34.3961 208.163 34.3961C209.996 34.3961 211.748 34.5959 213.417 34.9956C215.086 35.3952 216.555 36.03 217.825 36.8998C219.118 37.7697 220.141 38.8746 220.893 40.2146C221.669 41.5547 222.057 43.1768 222.057 45.0811V65.0051C222.057 65.2167 222.068 65.4518 222.092 65.7104C222.115 65.969 222.174 66.2041 222.268 66.4157C222.362 66.6273 222.503 66.8036 222.691 66.9447C222.879 67.0857 223.15 67.1562 223.502 67.1562C223.926 67.1562 224.313 67.0034 224.666 66.6978C225.042 66.3687 225.371 66.0395 225.654 65.7104L226.535 66.451C226.182 66.9447 225.759 67.4854 225.266 68.0731C224.772 68.6608 224.172 69.2133 223.467 69.7305C222.762 70.2477 221.939 70.6826 220.999 71.0353C220.058 71.3879 218.989 71.5642 217.79 71.5642C216.309 71.5642 214.992 71.1293 213.84 70.2595C212.688 69.3661 211.936 68.0026 211.583 66.1688C210.831 67.1797 210.043 68.0261 209.221 68.7078C208.421 69.3896 207.598 69.9421 206.752 70.3653C205.906 70.7884 205.048 71.094 204.178 71.2821C203.331 71.4702 202.473 71.5642 201.604 71.5642C200.475 71.5642 199.382 71.3879 198.324 71.0353C197.266 70.6826 196.314 70.1302 195.468 69.3779C194.645 68.6021 193.975 67.6029 193.458 66.3804C192.964 65.158 192.717 63.6651 192.717 61.9019C192.717 59.7626 193.14 58.0111 193.987 56.6476C194.833 55.2841 195.938 54.1439 197.301 53.227C198.688 52.2866 200.252 51.4873 201.991 50.8291C203.755 50.1708 205.553 49.4773 207.387 48.7485C208.75 48.2078 209.738 47.4085 210.349 46.3506C210.984 45.2691 211.301 44.1642 211.301 43.0358C211.301 41.2961 210.784 39.909 209.75 38.8746C208.739 37.8167 207.352 37.2877 205.588 37.2877ZM242.545 41.8368C243.438 40.4732 244.39 39.239 245.401 38.1341C245.824 37.6639 246.283 37.2055 246.777 36.7588C247.27 36.3121 247.776 35.9124 248.293 35.5598C248.834 35.2072 249.386 34.9251 249.95 34.7135C250.515 34.5019 251.079 34.3961 251.643 34.3961C252.842 34.3961 253.782 34.7605 254.464 35.4893C255.146 36.1946 255.487 37.1937 255.487 38.4867C255.487 39.286 255.416 40.0618 255.275 40.8141C255.158 41.5429 254.911 42.4363 254.535 43.4942H253.547C253.406 42.7654 253.077 42.1659 252.56 41.6957C252.043 41.202 251.29 40.9552 250.303 40.9552C249.574 40.9552 248.857 41.0962 248.152 41.3783C247.447 41.637 246.753 41.9661 246.071 42.3657C245.413 42.7654 244.778 43.2003 244.167 43.6705C243.579 44.1407 243.039 44.5874 242.545 45.0105V67.8968C242.545 68.2024 242.498 68.5668 242.404 68.99C242.31 69.4131 242.075 69.8128 241.699 70.1889C241.346 70.5651 240.805 70.8825 240.076 71.1411C239.371 71.4232 238.396 71.5642 237.15 71.5642C235.904 71.5642 234.916 71.4114 234.187 71.1058C233.482 70.8237 232.941 70.4828 232.565 70.0831C232.189 69.6835 231.954 69.2721 231.86 68.8489C231.766 68.4257 231.719 68.0849 231.719 67.8263V40.6025C231.719 39.9208 231.554 39.333 231.225 38.8394C230.92 38.3221 230.391 38.0635 229.638 38.0635C229.239 38.0635 228.898 38.1341 228.616 38.2751C228.334 38.4162 228.028 38.616 227.699 38.8746L226.958 37.993C227.499 37.5463 228.098 37.1114 228.757 36.6883C229.438 36.2416 230.167 35.8537 230.943 35.5245C231.719 35.1954 232.553 34.9251 233.447 34.7135C234.34 34.5019 235.281 34.3961 236.268 34.3961C237.279 34.3961 238.137 34.5372 238.842 34.8193C239.571 35.0779 240.159 35.4305 240.605 35.8772C241.076 36.3004 241.44 36.7823 241.699 37.323C241.957 37.8637 242.145 38.4162 242.263 38.9804C242.404 39.5211 242.486 40.0501 242.51 40.5673C242.533 41.061 242.545 41.4841 242.545 41.8368ZM288.106 39.9325C288.106 44.2347 287.683 48.3959 286.836 52.4159C286.013 56.4125 284.862 60.174 283.38 63.7004C281.923 67.2033 280.183 70.4005 278.161 73.2922C276.14 76.2073 273.941 78.6993 271.567 80.7681C269.193 82.8369 266.677 84.4473 264.021 85.5992C261.388 86.7512 258.719 87.3272 256.016 87.3272C253.947 87.3272 252.348 86.9745 251.22 86.2693C250.091 85.5875 249.527 84.6589 249.527 83.4834C249.527 83.0367 249.598 82.6018 249.739 82.1786C249.88 81.7555 250.068 81.3793 250.303 81.0502C250.538 80.7211 250.82 80.4507 251.149 80.2391C251.478 80.0511 251.831 79.957 252.207 79.957C252.654 79.957 253.03 80.1804 253.336 80.627C253.618 81.0737 253.923 81.5557 254.253 82.0729C254.582 82.6136 254.981 83.1073 255.451 83.5539C255.922 84.0006 256.568 84.224 257.391 84.224C258.449 84.224 259.554 84.0359 260.706 83.6597C261.858 83.3071 263.01 82.7899 264.162 82.1081C265.337 81.4264 266.501 80.5918 267.653 79.6044C268.828 78.6405 269.98 77.5591 271.109 76.3601C270.45 73.9857 269.686 71.3997 268.816 68.6021C267.97 65.7809 267.065 62.9481 266.101 60.1035C265.161 57.2588 264.185 54.52 263.174 51.887C262.187 49.2304 261.211 46.8795 260.247 44.8342C259.307 42.7889 258.39 41.155 257.497 39.9325C256.627 38.6865 255.851 38.0635 255.169 38.0635C254.723 38.0635 254.382 38.1341 254.147 38.2751C253.888 38.4162 253.594 38.616 253.265 38.8746L252.56 37.993C253.03 37.5934 253.524 37.1819 254.041 36.7588C254.558 36.3356 255.169 35.9477 255.875 35.5951C256.58 35.2424 257.403 34.9603 258.343 34.7487C259.283 34.5136 260.412 34.3961 261.728 34.3961C263.163 34.3961 264.491 34.7252 265.713 35.3835C266.959 36.0182 268.088 37.2055 269.099 38.9451C269.827 40.2382 270.58 41.7898 271.355 43.6C272.155 45.4102 272.954 47.432 273.753 49.6654C274.553 51.8987 275.352 54.3202 276.151 56.9297C276.974 59.5157 277.797 62.2311 278.62 65.0757C280.077 62.0195 281.253 58.7869 282.146 55.3781C283.04 51.9458 283.486 48.4194 283.486 44.7989C283.486 43.5059 283.404 42.401 283.239 41.4841C283.075 40.5673 282.887 39.7915 282.675 39.1567C282.464 38.4985 282.276 37.946 282.111 37.4993C281.946 37.0291 281.864 36.6177 281.864 36.2651C281.864 35.9124 282.005 35.6186 282.287 35.3835C282.569 35.1249 282.91 34.9251 283.31 34.784C283.71 34.643 284.109 34.5489 284.509 34.5019C284.932 34.4314 285.285 34.3961 285.567 34.3961C286.202 34.3961 286.684 34.5254 287.013 34.784C287.365 35.0426 287.624 35.4188 287.788 35.9124C287.953 36.3826 288.047 36.9586 288.071 37.6404C288.094 38.3221 288.106 39.0862 288.106 39.9325ZM310.569 52.7333C310.569 52.1456 310.381 51.6989 310.005 51.3933C309.629 51.0877 309.147 50.9349 308.559 50.9349C307.736 50.9349 306.948 51.1229 306.196 51.4991C305.467 51.8752 304.821 52.4277 304.257 53.1565C303.692 53.8853 303.246 54.7904 302.917 55.8718C302.588 56.9297 302.423 58.164 302.423 59.5745C302.423 60.938 302.517 62.0665 302.705 62.9598C302.917 63.8532 303.187 64.5702 303.516 65.1109C303.869 65.6281 304.268 65.9925 304.715 66.2041C305.162 66.4157 305.632 66.5215 306.126 66.5215C306.737 66.5215 307.313 66.3687 307.854 66.0631C308.394 65.7339 308.864 65.3225 309.264 64.8288C309.664 64.3351 309.981 63.7827 310.216 63.1714C310.451 62.5602 310.569 61.9489 310.569 61.3377V52.7333ZM304.962 37.2877C304.163 37.2877 303.422 37.3818 302.74 37.5699C302.059 37.7579 301.471 37.993 300.977 38.2751C300.483 38.5572 300.096 38.8746 299.813 39.2273C299.531 39.5564 299.39 39.8738 299.39 40.1794C299.39 40.532 299.567 40.7906 299.919 40.9552C300.295 41.0962 300.707 41.2726 301.153 41.4841C301.6 41.6722 302 41.9543 302.352 42.3305C302.729 42.6831 302.917 43.2356 302.917 43.9879C302.917 44.4816 302.811 44.94 302.599 45.3632C302.411 45.7628 302.141 46.1272 301.788 46.4563C301.459 46.762 301.059 47.0088 300.589 47.1969C300.143 47.3615 299.672 47.4437 299.179 47.4437C297.862 47.4437 296.792 46.9971 295.97 46.1037C295.17 45.2104 294.771 44.0231 294.771 42.5421C294.771 41.108 295.147 39.8855 295.899 38.8746C296.651 37.8402 297.627 36.9939 298.826 36.3356C300.049 35.6774 301.424 35.1954 302.952 34.8898C304.48 34.5607 306.008 34.3961 307.536 34.3961C309.37 34.3961 311.121 34.5959 312.791 34.9956C314.46 35.3952 315.929 36.03 317.199 36.8998C318.492 37.7697 319.514 38.8746 320.266 40.2146C321.042 41.5547 321.43 43.1768 321.43 45.0811V65.0051C321.43 65.2167 321.442 65.4518 321.465 65.7104C321.489 65.969 321.548 66.2041 321.642 66.4157C321.736 66.6273 321.877 66.8036 322.065 66.9447C322.253 67.0857 322.523 67.1562 322.876 67.1562C323.299 67.1562 323.687 67.0034 324.04 66.6978C324.416 66.3687 324.745 66.0395 325.027 65.7104L325.909 66.451C325.556 66.9447 325.133 67.4854 324.639 68.0731C324.145 68.6608 323.546 69.2133 322.841 69.7305C322.135 70.2477 321.313 70.6826 320.372 71.0353C319.432 71.3879 318.362 71.5642 317.163 71.5642C315.682 71.5642 314.366 71.1293 313.214 70.2595C312.062 69.3661 311.309 68.0026 310.957 66.1688C310.205 67.1797 309.417 68.0261 308.594 68.7078C307.795 69.3896 306.972 69.9421 306.126 70.3653C305.279 70.7884 304.421 71.094 303.551 71.2821C302.705 71.4702 301.847 71.5642 300.977 71.5642C299.849 71.5642 298.756 71.3879 297.698 71.0353C296.64 70.6826 295.688 70.1302 294.841 69.3779C294.018 68.6021 293.348 67.6029 292.831 66.3804C292.337 65.158 292.091 63.6651 292.091 61.9019C292.091 59.7626 292.514 58.0111 293.36 56.6476C294.206 55.2841 295.311 54.1439 296.675 53.227C298.062 52.2866 299.625 51.4873 301.365 50.8291C303.128 50.1708 304.927 49.4773 306.76 48.7485C308.124 48.2078 309.111 47.4085 309.723 46.3506C310.357 45.2691 310.675 44.1642 310.675 43.0358C310.675 41.2961 310.157 39.909 309.123 38.8746C308.112 37.8167 306.725 37.2877 304.962 37.2877Z" fill="white"/>
</svg>
